<svg width="51" height="50" viewBox="0 0 51 50" fill="none" xmlns="http://www.w3.org/2000/svg">
<path d="M50.3455 9.41568C50.3187 8.78153 50.2319 8.15134 50.0864 7.53351C49.5915 5.42778 48.4056 3.54784 46.7174 2.19284C45.057 0.821891 42.9817 0.0509205 40.8277 0.00481931H10.201C9.4112 -0.0187791 8.62116 0.0443385 7.84513 0.193036C6.00062 0.596606 4.31402 1.5287 2.99199 2.87513C2.0296 3.80464 1.28885 4.93839 0.824564 6.19246C0.430702 7.11736 0.207236 8.10565 0.164913 9.10982H0V41.0126H0.164913C0.199176 42.0002 0.414783 42.9731 0.801005 43.8829C1.67951 46.129 3.35735 47.9721 5.5128 49.0589C6.40654 49.5227 7.36897 49.8405 8.36343 50C8.39566 49.9814 8.43223 49.9716 8.46945 49.9716C8.50667 49.9716 8.54323 49.9814 8.57546 50H41.7936H41.9585H42.5475C44.3194 49.6234 45.9525 48.7648 47.2663 47.5192C48.5802 46.2736 49.5235 44.6894 49.9921 42.9419C50.2486 41.9832 50.3675 40.993 50.3455 40.001V9.41568ZM39.1314 33.6486C39.0933 33.747 39.0933 33.8561 39.1314 33.9545C39.0735 34.3314 38.9788 34.7017 38.8487 35.0603L38.4247 36.6836L38.3069 37.0365C38.3069 37.3895 38.0242 37.6718 37.6001 37.7188H37.4352C37.3718 37.7575 37.3014 37.7833 37.228 37.7947C37.1546 37.8062 37.0796 37.8031 37.0074 37.7856C36.9352 37.7681 36.8672 37.7366 36.8072 37.6929C36.7472 37.6491 36.6964 37.594 36.6577 37.5306C36.4414 37.2548 36.3014 36.9271 36.2518 36.5802C36.2022 36.2334 36.2447 35.8796 36.375 35.5543L36.5164 35.225C36.5517 35.0701 36.5517 34.9093 36.5164 34.7544C36.3997 34.4192 36.3997 34.0544 36.5164 33.7192C36.5556 33.6203 36.6159 33.5311 36.6933 33.458C36.7706 33.3848 36.863 33.3294 36.964 33.2957L37.553 33.0369C37.6342 33.0076 37.7079 32.9608 37.769 32.8998C37.8301 32.8388 37.877 32.7651 37.9064 32.684C38.0477 32.3782 38.2833 32.1429 38.4482 31.837C38.6131 31.5312 38.5896 31.5312 38.778 31.5312C38.9665 31.5312 39.0608 31.7194 39.155 31.8841C39.19 32.0151 39.19 32.153 39.155 32.2841V32.7546C39.2498 33.0465 39.2415 33.3621 39.1314 33.6486ZM39.7911 21.5557C39.7001 21.8671 39.5737 22.1671 39.4141 22.4497C39.155 22.9438 38.8487 23.4143 38.5896 23.9084C38.3199 24.3618 37.9589 24.7543 37.5294 25.0612C36.708 25.6658 35.9643 26.3691 35.3149 27.1551C34.9832 27.5778 34.6988 28.0353 34.4668 28.5197C34.4316 28.5805 34.4131 28.6495 34.4131 28.7197C34.4131 28.7899 34.4316 28.8589 34.4668 28.9197C34.5786 29.2402 34.6575 29.5713 34.7024 29.9078C34.7302 30.141 34.8385 30.3573 35.0086 30.5195C35.0751 30.5963 35.1243 30.6864 35.1528 30.7839C35.1812 30.8813 35.1883 30.9838 35.1735 31.0842C35.1264 31.5142 35.1264 31.9481 35.1735 32.3782C35.1924 32.7203 35.0991 33.0592 34.9078 33.3436C34.7165 33.6281 34.4376 33.8425 34.1134 33.9545C33.7627 34.0426 33.4592 34.2615 33.2653 34.5662C33.2653 34.6838 33.0768 34.7074 32.9825 34.7779C32.8533 34.8436 32.7516 34.953 32.6955 35.0865C32.6394 35.2201 32.6326 35.3692 32.6763 35.5073C32.6763 35.672 32.6763 35.8602 32.7941 36.0484C32.888 36.4349 32.888 36.8382 32.7941 37.2248C32.7713 37.3157 32.7242 37.3988 32.6578 37.4651C32.5914 37.5314 32.5082 37.5784 32.4171 37.6012C32.2673 37.6311 32.1238 37.6869 31.9931 37.7659C31.9185 37.7876 31.8539 37.8349 31.8108 37.8994C31.7677 37.964 31.7488 38.0417 31.7575 38.1188C31.7578 38.6827 31.5668 39.23 31.2156 39.6716C30.7855 40.2914 30.3132 40.881 29.8021 41.4361C29.571 41.6993 29.284 41.9077 28.962 42.0461C28.64 42.1845 28.2912 42.2494 27.9409 42.236C27.6198 42.203 27.2961 42.203 26.975 42.236L26.3389 42.3537C26.1748 42.3765 26.0083 42.3765 25.8442 42.3537C25.7359 42.3568 25.628 42.3386 25.5268 42.3001C25.4255 42.2616 25.3329 42.2035 25.2541 42.1292C25.1754 42.0549 25.112 41.9659 25.0678 41.8671C25.0235 41.7684 24.9991 41.6619 24.9961 41.5538C24.9846 41.4995 24.9846 41.4434 24.9961 41.3891C25.0292 41.0485 24.9638 40.7055 24.8076 40.4009C24.5785 39.8537 24.2774 39.3395 23.9123 38.8717C23.7545 38.6825 23.6489 38.4554 23.6061 38.2129L23.3941 36.8248C23.2309 36.2718 22.9674 35.7534 22.6166 35.2955L22.2632 34.7309C22.1735 34.5714 22.1173 34.3952 22.0983 34.2133C21.9991 33.4068 22.1383 32.589 22.4988 31.8606L22.7815 31.4371C22.8568 31.3172 22.8967 31.1786 22.8967 31.0371C22.8967 30.8956 22.8568 30.757 22.7815 30.6372C22.6906 30.363 22.6352 30.0784 22.6166 29.7902C22.5016 29.2885 22.3358 28.7997 22.1219 28.3315C21.9453 28.0593 21.74 27.8069 21.5093 27.5786L21.2031 27.2963C21.0486 27.1525 20.9396 26.9668 20.8893 26.762C20.8391 26.5572 20.8499 26.3422 20.9204 26.1435C20.9204 25.8611 21.0617 25.5788 21.1088 25.2965C21.1204 25.1477 21.1204 24.9983 21.1088 24.8495C21.11 24.7236 21.0652 24.6016 20.9828 24.5063C20.9004 24.4111 20.7861 24.349 20.6612 24.3319H19.7895C19.6968 24.341 19.6033 24.3237 19.52 24.2821C19.4366 24.2405 19.3667 24.1762 19.3183 24.0966C19.2547 24.0078 19.1995 23.9133 19.1534 23.8143C19.089 23.6964 18.986 23.6041 18.8617 23.5527C18.7374 23.5014 18.5993 23.494 18.4702 23.532C18.1739 23.5503 17.8811 23.6056 17.5985 23.6967L16.8447 23.9319C16.5467 24.0562 16.2248 24.1125 15.9023 24.0966H15.2898C14.8992 24.0565 14.5047 24.1048 14.1354 24.2378C14.0481 24.2831 13.9511 24.3068 13.8527 24.3068C13.7542 24.3068 13.6573 24.2831 13.57 24.2378C12.8663 23.8869 12.2028 23.461 11.591 22.9673C11.3952 22.8114 11.2414 22.6093 11.1434 22.3791C11.035 22.1683 10.8917 21.9774 10.7193 21.8145C10.4602 21.5557 10.2246 21.2969 9.96544 21.0616C9.82042 20.9779 9.6963 20.8624 9.60244 20.7238C9.50859 20.5853 9.44743 20.4273 9.42358 20.2617C9.4224 20.1638 9.40084 20.0673 9.36029 19.9782C9.31973 19.889 9.26106 19.8093 9.188 19.7441C9.16794 19.7264 9.15188 19.7047 9.14088 19.6804C9.12988 19.656 9.12419 19.6296 9.12419 19.6029C9.12419 19.5762 9.12988 19.5498 9.14088 19.5255C9.15188 19.5012 9.16794 19.4794 9.188 19.4618L9.42358 19.2265C9.64918 18.7786 9.78522 18.2912 9.82409 17.7913C9.87073 17.4706 9.82156 17.1432 9.68273 16.8503C9.61259 16.7243 9.57578 16.5826 9.57578 16.4385C9.57578 16.2944 9.61259 16.1527 9.68273 16.0268C9.95162 15.5574 10.1878 15.07 10.3895 14.5681C10.414 14.4096 10.4701 14.2576 10.5544 14.1211C10.7429 13.8623 10.9549 13.627 11.1669 13.3682C11.2237 13.2997 11.2868 13.2367 11.3554 13.18L12.18 12.5918C12.3181 12.5151 12.4326 12.4023 12.5115 12.2656C12.5903 12.1288 12.6305 11.9732 12.6276 11.8154C12.6046 11.6673 12.6046 11.5166 12.6276 11.3684C12.7461 10.9441 13.0031 10.5715 13.3579 10.3097L13.7584 9.98033C13.9139 9.85921 14.0423 9.70694 14.1354 9.53331C14.1589 9.44071 14.1987 9.35306 14.2532 9.27451C14.2797 9.24447 14.3123 9.22041 14.3489 9.20393C14.3854 9.18745 14.4251 9.17893 14.4652 9.17893C14.5053 9.17893 14.545 9.18745 14.5815 9.20393C14.6181 9.22041 14.6507 9.24447 14.6772 9.27451C15.0565 9.43325 15.4729 9.48217 15.8787 9.41568C16.0939 9.41544 16.3051 9.35864 16.4913 9.25099C17.284 8.80684 18.174 8.56443 19.0828 8.54517H19.4126C19.6538 8.49822 19.9017 8.49822 20.1429 8.54517C20.505 8.54913 20.8646 8.48529 21.2031 8.35696C21.2846 8.29587 21.3838 8.26285 21.4858 8.26285C21.5877 8.26285 21.6869 8.29587 21.7685 8.35696C21.7685 8.35696 22.0747 8.35696 22.1219 8.54517C22.169 8.73339 22.1219 8.75692 21.9805 8.87455C21.9553 8.95096 21.9553 9.03341 21.9805 9.10982C22.0286 9.16986 22.0632 9.23942 22.0823 9.31388C22.1013 9.38835 22.1042 9.466 22.0908 9.54168C22.0775 9.61736 22.0481 9.68933 22.0047 9.75279C21.9613 9.81626 21.9049 9.86976 21.8392 9.90975C21.8314 9.96437 21.8314 10.0198 21.8392 10.0744C21.8392 10.0744 21.8392 10.0744 21.8392 10.1921H21.9805C22.2716 10.3402 22.5803 10.4509 22.8993 10.5215L23.6296 10.6626C23.7229 10.676 23.8111 10.7134 23.8854 10.7711C23.9598 10.8289 24.0178 10.905 24.0537 10.992C24.0884 11.0687 24.1405 11.1364 24.2059 11.1895C24.2714 11.2426 24.3483 11.2797 24.4306 11.2978L25.3259 11.6508C25.4038 11.6644 25.4835 11.6644 25.5615 11.6508C25.7028 11.6508 25.7735 11.6508 25.8442 11.4625C25.867 11.3302 25.867 11.1949 25.8442 11.0626C25.8486 10.9515 25.8872 10.8445 25.9546 10.7562C26.022 10.6678 26.1151 10.6022 26.2211 10.5685H26.6216C26.7421 10.5394 26.8681 10.5414 26.9876 10.5743C27.1072 10.6072 27.2163 10.67 27.3048 10.7567C27.4436 10.8812 27.6154 10.9629 27.7996 10.992L29.4958 11.4155C29.7604 11.5215 30.0558 11.5215 30.3204 11.4155C30.5954 11.3223 30.8935 11.3223 31.1685 11.4155H32.0402C32.2758 11.4155 32.4407 11.4155 32.4642 11.7449C32.4878 12.0742 32.4642 12.0272 32.4642 12.1448C32.5809 12.4881 32.5809 12.8603 32.4642 13.2035C32.4219 13.2697 32.3656 13.3259 32.2993 13.3682C32.1815 13.3682 32.1815 13.5094 32.2993 13.627C32.4171 13.7447 32.4878 14.1211 32.6056 14.3564C32.8142 14.6587 32.9732 14.9922 33.0768 15.3445C33.1274 15.4785 33.208 15.5992 33.3124 15.6974C33.6438 16.028 33.8303 16.4765 33.8307 16.9444C33.8275 17.075 33.8509 17.2049 33.8995 17.3263C33.9481 17.4476 34.0208 17.5578 34.1134 17.6502C34.3809 17.8958 34.5694 18.2151 34.6552 18.5677C34.7502 18.8448 34.9319 19.084 35.1735 19.25C35.5505 19.5559 35.8803 19.9088 36.2337 20.2382C36.3773 20.3788 36.4757 20.559 36.5164 20.7558C36.5164 21.1322 36.7755 21.2734 37.176 21.2028C37.4982 21.212 37.8206 21.2042 38.142 21.1792C38.5552 21.136 38.9599 21.0329 39.3435 20.8734H39.4848C39.5142 20.8626 39.5455 20.8584 39.5767 20.8611C39.6079 20.8638 39.6381 20.8734 39.6651 20.8891C39.6921 20.9049 39.7153 20.9264 39.733 20.9522C39.7507 20.9779 39.7625 21.0072 39.7675 21.0381C39.8213 21.2055 39.8295 21.3841 39.7911 21.5557Z" fill="#264FAD"/>
</svg>
